<?xml version="1.0" encoding="UTF-8" standalone="no"?>
<svg
   viewBox="0 0 81.917 36.868"
   version="1.1"
   id="svg6"
   sodipodi:docname="logo_.svg"
   width="81.917"
   height="36.868"
   inkscape:version="1.4.1 (93de688d07, 2025-03-30)"
   xmlns:inkscape="http://www.inkscape.org/namespaces/inkscape"
   xmlns:sodipodi="http://sodipodi.sourceforge.net/DTD/sodipodi-0.dtd"
   xmlns="http://www.w3.org/2000/svg"
   xmlns:svg="http://www.w3.org/2000/svg">
  <sodipodi:namedview
     id="namedview6"
     pagecolor="#ffffff"
     bordercolor="#000000"
     borderopacity="0.25"
     inkscape:showpageshadow="2"
     inkscape:pageopacity="0.0"
     inkscape:pagecheckerboard="0"
     inkscape:deskcolor="#d1d1d1"
     inkscape:zoom="18.878371"
     inkscape:cx="91.665746"
     inkscape:cy="18.91053"
     inkscape:window-width="1920"
     inkscape:window-height="995"
     inkscape:window-x="0"
     inkscape:window-y="0"
     inkscape:window-maximized="1"
     inkscape:current-layer="svg6" />
  <defs
     id="defs1">
    <style
       id="style1">.a{fill:#f1db09;}.b{fill:#7d7c7c;}.c{fill:#baa312;}</style>
  </defs>
  <path
     class="a"
     d="m 1.7175355,8.6544132 a 5.24,5.24 0 0 1 1.42,-3.9830004 4.548,4.548 0 0 1 3.22,-1.35 6.161,6.161 0 0 1 4.3289995,1.489 q 1.626,1.489 1.973,4.9520004 l 0.693,7.3419998 H 8.1585355 a 5.1,5.1 0 0 1 -2.632,-0.693 6.808,6.808 0 0 1 -2.043,-1.87 8.641,8.641 0 0 1 -1.316,-2.7 11.153,11.153 0 0 1 -0.45,-3.1859998"
     id="path1"
     style="fill:#9b09f1;fill-opacity:1" />
  <path
     class="a"
     d="m 24.424535,30.926413 a 5.238,5.238 0 0 0 1.419,-3.981 11.468,11.468 0 0 0 -0.179,-2.04 c -0.021,0.007 -0.038,0.015 -0.058,0.022 a 14.518,14.518 0 0 1 -4.985,0.762 h -5.73 l 0.014,0.149 q 0.347,3.462 1.973,4.95 a 6.159,6.159 0 0 0 4.327,1.488 4.545,4.545 0 0 0 3.219,-1.35"
     id="path5"
     style="fill:#9b09f1;fill-opacity:1" />
  <path
     class="c"
     d="m 25.606535,24.927413 c 0.02,-0.007 0.038,-0.015 0.058,-0.023 a 10.711,10.711 0 0 0 -0.271,-1.144 8.642,8.642 0 0 0 -1.315,-2.7 6.814,6.814 0 0 0 -2.043,-1.869 5.1,5.1 0 0 0 -2.63,-0.692 h -5.192 l 0.678,7.19 h 5.73 a 14.523,14.523 0 0 0 4.985,-0.762"
     id="path6"
     style="fill:#7c12ba;fill-opacity:1" />
  <path
     class="a"
     d="m 28.1499,8.5484719 a 5.24,5.24 0 0 1 1.42,-3.9830004 4.548,4.548 0 0 1 3.22,-1.35 6.161,6.161 0 0 1 4.329,1.489 q 1.626,1.489 1.973,4.9520004 l 0.693,7.3420001 h -5.194 a 5.1,5.1 0 0 1 -2.632,-0.693 6.808,6.808 0 0 1 -2.043,-1.87 8.641,8.641 0 0 1 -1.316,-2.7 11.153,11.153 0 0 1 -0.45,-3.1860001"
     id="path18"
     style="fill:#9b09f1;fill-opacity:1" />
  <path
     class="a"
     d="m 50.8569,30.820472 a 5.238,5.238 0 0 0 1.419,-3.981 11.468,11.468 0 0 0 -0.179,-2.04 c -0.021,0.007 -0.038,0.015 -0.058,0.022 a 14.518,14.518 0 0 1 -4.985,0.762 h -5.73 l 0.014,0.149 q 0.347,3.462 1.973,4.95 a 6.159,6.159 0 0 0 4.327,1.488 4.545,4.545 0 0 0 3.219,-1.35"
     id="path19"
     style="fill:#9b09f1;fill-opacity:1" />
  <path
     class="c"
     d="m 52.0389,24.821472 c 0.02,-0.007 0.038,-0.015 0.058,-0.023 a 10.711,10.711 0 0 0 -0.271,-1.144 8.642,8.642 0 0 0 -1.315,-2.7 6.814,6.814 0 0 0 -2.043,-1.869 5.1,5.1 0 0 0 -2.63,-0.692 h -5.192 l 0.678,7.19 h 5.73 a 14.523,14.523 0 0 0 4.985,-0.762"
     id="path20"
     style="fill:#7c12ba;fill-opacity:1" />
  <path
     class="a"
     d="m 52.275895,8.5484719 a 5.24,5.24 0 0 0 -1.42,-3.9830004 4.548,4.548 0 0 0 -3.22,-1.35 6.161,6.161 0 0 0 -4.329,1.489 q -1.626,1.489 -1.973,4.9520004 l -0.693,7.3420001 h 5.194 a 5.1,5.1 0 0 0 2.632,-0.693 6.808,6.808 0 0 0 2.043,-1.87 8.641,8.641 0 0 0 1.316,-2.7 11.153,11.153 0 0 0 0.45,-3.1860001"
     id="path21"
     style="fill:#9b09f1;fill-opacity:1" />
  <path
     class="a"
     d="m 29.568895,30.820472 a 5.238,5.238 0 0 1 -1.419,-3.981 11.468,11.468 0 0 1 0.179,-2.04 c 0.021,0.007 0.038,0.015 0.058,0.022 a 14.518,14.518 0 0 0 4.985,0.762 h 5.73 l -0.014,0.149 q -0.347,3.462 -1.973,4.95 a 6.159,6.159 0 0 1 -4.327,1.488 4.545,4.545 0 0 1 -3.219,-1.35"
     id="path22"
     style="fill:#9b09f1;fill-opacity:1" />
  <path
     class="c"
     d="m 28.386895,24.821472 c -0.02,-0.007 -0.038,-0.015 -0.058,-0.023 a 10.711,10.711 0 0 1 0.271,-1.144 8.642,8.642 0 0 1 1.315,-2.7 6.814,6.814 0 0 1 2.043,-1.869 5.1,5.1 0 0 1 2.63,-0.692 h 5.192 l -0.678,7.19 h -5.73 a 14.523,14.523 0 0 1 -4.985,-0.762"
     id="path23"
     style="fill:#7c12ba;fill-opacity:1" />
  <path
     class="a"
     d="m 78.284494,8.4425306 a 5.24,5.24 0 0 0 -1.42,-3.9830004 4.548,4.548 0 0 0 -3.22,-1.35 6.161,6.161 0 0 0 -4.329,1.489 q -1.626,1.489 -1.973,4.9520004 l -0.693,7.3420004 h 5.194 a 5.1,5.1 0 0 0 2.632,-0.693 6.808,6.808 0 0 0 2.043,-1.87 8.641,8.641 0 0 0 1.316,-2.7 11.153,11.153 0 0 0 0.45,-3.1860004"
     id="path27"
     style="fill:#9b09f1;fill-opacity:1" />
  <path
     class="a"
     d="m 55.577494,30.714531 a 5.238,5.238 0 0 1 -1.419,-3.981 11.468,11.468 0 0 1 0.179,-2.04 c 0.021,0.007 0.038,0.015 0.058,0.022 a 14.518,14.518 0 0 0 4.985,0.762 h 5.73 l -0.014,0.149 q -0.347,3.462 -1.973,4.95 a 6.159,6.159 0 0 1 -4.327,1.488 4.545,4.545 0 0 1 -3.219,-1.35"
     id="path28"
     style="fill:#9b09f1;fill-opacity:1" />
  <path
     class="c"
     d="m 54.395494,24.715531 c -0.02,-0.007 -0.038,-0.015 -0.058,-0.023 a 10.711,10.711 0 0 1 0.271,-1.144 8.642,8.642 0 0 1 1.315,-2.7 6.814,6.814 0 0 1 2.043,-1.869 5.1,5.1 0 0 1 2.63,-0.692 h 5.192 l -0.678,7.19 h -5.73 a 14.523,14.523 0 0 1 -4.985,-0.762"
     id="path29"
     style="fill:#7c12ba;fill-opacity:1" />
</svg>
